<mxfile host="app.diagrams.net" modified="2023-08-01T11:39:32.254Z" agent="Mozilla/5.0 (Windows NT 10.0; Win64; x64) AppleWebKit/537.36 (KHTML, like Gecko) Chrome/115.0.0.0 Safari/537.36" etag="6lqXEH2Vl6MIiq6VfJn9" version="21.6.6" type="device">
  <diagram name="페이지-1" id="RGnwuYh1zGf8iK2MfvKK">
    <mxGraphModel dx="1791" dy="998" grid="1" gridSize="10" guides="1" tooltips="1" connect="1" arrows="1" fold="1" page="1" pageScale="1" pageWidth="827" pageHeight="1169" math="0" shadow="0">
      <root>
        <mxCell id="0" />
        <mxCell id="1" parent="0" />
        <mxCell id="In0rpE6QOBtN2LfNiKg4-2" value="" style="edgeStyle=orthogonalEdgeStyle;rounded=0;orthogonalLoop=1;jettySize=auto;html=1;" parent="1" source="In0rpE6QOBtN2LfNiKg4-4" target="In0rpE6QOBtN2LfNiKg4-6" edge="1">
          <mxGeometry relative="1" as="geometry" />
        </mxCell>
        <mxCell id="In0rpE6QOBtN2LfNiKg4-3" value="" style="edgeStyle=orthogonalEdgeStyle;rounded=0;orthogonalLoop=1;jettySize=auto;html=1;" parent="1" source="In0rpE6QOBtN2LfNiKg4-4" target="In0rpE6QOBtN2LfNiKg4-6" edge="1">
          <mxGeometry relative="1" as="geometry" />
        </mxCell>
        <mxCell id="In0rpE6QOBtN2LfNiKg4-4" value="import : webdriver" style="rounded=0;whiteSpace=wrap;html=1;" parent="1" vertex="1">
          <mxGeometry x="-500.06" y="60" width="150" height="20" as="geometry" />
        </mxCell>
        <mxCell id="In0rpE6QOBtN2LfNiKg4-5" value="" style="edgeStyle=orthogonalEdgeStyle;rounded=0;orthogonalLoop=1;jettySize=auto;html=1;" parent="1" source="In0rpE6QOBtN2LfNiKg4-6" target="In0rpE6QOBtN2LfNiKg4-26" edge="1">
          <mxGeometry relative="1" as="geometry" />
        </mxCell>
        <mxCell id="In0rpE6QOBtN2LfNiKg4-6" value="&lt;div&gt;driver.get :&amp;nbsp;&lt;/div&gt;&lt;div&gt;iscream&amp;nbsp;Web&lt;/div&gt;" style="rounded=0;whiteSpace=wrap;html=1;" parent="1" vertex="1">
          <mxGeometry x="-500.06" y="100" width="150" height="40" as="geometry" />
        </mxCell>
        <mxCell id="In0rpE6QOBtN2LfNiKg4-7" value="" style="edgeStyle=orthogonalEdgeStyle;rounded=0;orthogonalLoop=1;jettySize=auto;html=1;" parent="1" source="In0rpE6QOBtN2LfNiKg4-27" edge="1">
          <mxGeometry relative="1" as="geometry">
            <mxPoint x="-425.05999999999995" y="430" as="targetPoint" />
          </mxGeometry>
        </mxCell>
        <mxCell id="In0rpE6QOBtN2LfNiKg4-8" value="False" style="edgeLabel;html=1;align=center;verticalAlign=middle;resizable=0;points=[];" parent="In0rpE6QOBtN2LfNiKg4-7" vertex="1" connectable="0">
          <mxGeometry x="-0.7519" y="-1" relative="1" as="geometry">
            <mxPoint as="offset" />
          </mxGeometry>
        </mxCell>
        <mxCell id="In0rpE6QOBtN2LfNiKg4-9" value="" style="edgeStyle=orthogonalEdgeStyle;rounded=0;orthogonalLoop=1;jettySize=auto;html=1;" parent="1" source="In0rpE6QOBtN2LfNiKg4-27" target="In0rpE6QOBtN2LfNiKg4-22" edge="1">
          <mxGeometry relative="1" as="geometry" />
        </mxCell>
        <mxCell id="In0rpE6QOBtN2LfNiKg4-10" value="True" style="edgeLabel;html=1;align=center;verticalAlign=middle;resizable=0;points=[];" parent="In0rpE6QOBtN2LfNiKg4-9" vertex="1" connectable="0">
          <mxGeometry x="-0.7" relative="1" as="geometry">
            <mxPoint x="21" as="offset" />
          </mxGeometry>
        </mxCell>
        <mxCell id="In0rpE6QOBtN2LfNiKg4-11" value="" style="edgeStyle=orthogonalEdgeStyle;rounded=0;orthogonalLoop=1;jettySize=auto;html=1;" parent="1" source="In0rpE6QOBtN2LfNiKg4-28" edge="1">
          <mxGeometry relative="1" as="geometry">
            <mxPoint x="-425.05999999999995" y="360" as="targetPoint" />
          </mxGeometry>
        </mxCell>
        <mxCell id="In0rpE6QOBtN2LfNiKg4-16" value="" style="edgeStyle=orthogonalEdgeStyle;rounded=0;orthogonalLoop=1;jettySize=auto;html=1;" parent="1" source="In0rpE6QOBtN2LfNiKg4-17" target="In0rpE6QOBtN2LfNiKg4-19" edge="1">
          <mxGeometry relative="1" as="geometry" />
        </mxCell>
        <mxCell id="In0rpE6QOBtN2LfNiKg4-17" value="driver.find_element.click()" style="rounded=0;whiteSpace=wrap;html=1;" parent="1" vertex="1">
          <mxGeometry x="-500.06" y="430" width="150" height="30" as="geometry" />
        </mxCell>
        <mxCell id="In0rpE6QOBtN2LfNiKg4-18" value="" style="edgeStyle=orthogonalEdgeStyle;rounded=0;orthogonalLoop=1;jettySize=auto;html=1;" parent="1" source="In0rpE6QOBtN2LfNiKg4-19" target="In0rpE6QOBtN2LfNiKg4-21" edge="1">
          <mxGeometry relative="1" as="geometry" />
        </mxCell>
        <mxCell id="In0rpE6QOBtN2LfNiKg4-19" value="driver.find_element :&amp;nbsp;&lt;br&gt;title, content, score" style="rounded=0;whiteSpace=wrap;html=1;" parent="1" vertex="1">
          <mxGeometry x="-500.06" y="480" width="150" height="40" as="geometry" />
        </mxCell>
        <mxCell id="In0rpE6QOBtN2LfNiKg4-20" style="edgeStyle=orthogonalEdgeStyle;rounded=0;orthogonalLoop=1;jettySize=auto;html=1;exitX=0.5;exitY=1;exitDx=0;exitDy=0;entryX=0;entryY=0.5;entryDx=0;entryDy=0;" parent="1" source="In0rpE6QOBtN2LfNiKg4-21" target="In0rpE6QOBtN2LfNiKg4-28" edge="1">
          <mxGeometry relative="1" as="geometry">
            <Array as="points">
              <mxPoint x="-425" y="680" />
              <mxPoint x="-540" y="680" />
              <mxPoint x="-540" y="250" />
            </Array>
          </mxGeometry>
        </mxCell>
        <mxCell id="In0rpE6QOBtN2LfNiKg4-21" value="list.append([title, content, score, date])&lt;br&gt;ind += 1" style="rounded=0;whiteSpace=wrap;html=1;" parent="1" vertex="1">
          <mxGeometry x="-500.06" y="540" width="150" height="60" as="geometry" />
        </mxCell>
        <mxCell id="In0rpE6QOBtN2LfNiKg4-22" value="break" style="ellipse;whiteSpace=wrap;html=1;" parent="1" vertex="1">
          <mxGeometry x="-280.06" y="290" width="90" height="40" as="geometry" />
        </mxCell>
        <mxCell id="In0rpE6QOBtN2LfNiKg4-25" value="" style="edgeStyle=orthogonalEdgeStyle;rounded=0;orthogonalLoop=1;jettySize=auto;html=1;" parent="1" source="In0rpE6QOBtN2LfNiKg4-26" target="In0rpE6QOBtN2LfNiKg4-28" edge="1">
          <mxGeometry relative="1" as="geometry" />
        </mxCell>
        <mxCell id="In0rpE6QOBtN2LfNiKg4-26" value="&lt;div&gt;ind = 1&lt;/div&gt;&lt;div&gt;no = 1&lt;/div&gt;&lt;div&gt;page = 1&lt;/div&gt;" style="rounded=0;whiteSpace=wrap;html=1;" parent="1" vertex="1">
          <mxGeometry x="-500.06" y="160" width="150" height="50" as="geometry" />
        </mxCell>
        <mxCell id="In0rpE6QOBtN2LfNiKg4-27" value="&lt;font style=&quot;font-size: 8px;&quot;&gt;date_year == &#39;2021&#39;&lt;br&gt;&lt;/font&gt;" style="rhombus;whiteSpace=wrap;html=1;" parent="1" vertex="1">
          <mxGeometry x="-500.06" y="290" width="150" height="40" as="geometry" />
        </mxCell>
        <mxCell id="In0rpE6QOBtN2LfNiKg4-28" value="&lt;div style=&quot;border-color: var(--border-color);&quot;&gt;driver.find_element :&lt;/div&gt;&lt;div style=&quot;border-color: var(--border-color);&quot;&gt;date&lt;/div&gt;" style="rounded=0;whiteSpace=wrap;html=1;" parent="1" vertex="1">
          <mxGeometry x="-500.06" y="230" width="150" height="40" as="geometry" />
        </mxCell>
      </root>
    </mxGraphModel>
  </diagram>
</mxfile>
